<svg xmlns:xlink="http://www.w3.org/1999/xlink" xmlns="http://www.w3.org/2000/svg" height="32" viewBox="0 0 32 32" width="32">
    <g fill="#00a862" fill-rule="evenodd">
        <path d="m5.8458278 6h20.3083444c1.3372781 0 1.8222075.13923842 2.3110964.40069906.4888888.26146063.8725717.6451435 1.1340323 1.13403238.2614607.48888889.4006991.97381825.4006991 2.31109636v17.3083444c0 1.3372781-.1392384 1.8222075-.4006991 2.3110964-.2614606.4888888-.6451435.8725717-1.1340323 1.1340323-.4888889.2614607-.9738183.4006991-2.3110964.4006991h-20.3083444c-1.33727811 0-1.82220747-.1392384-2.31109636-.4006991-.48888888-.2614606-.87257175-.6451435-1.13403238-1.1340323-.26146064-.4888889-.40069906-.9738183-.40069906-2.3110964v-17.3083444c0-1.33727811.13923842-1.82220747.40069906-2.31109636.26146063-.48888888.6451435-.87257175 1.13403238-1.13403238.48888889-.26146064.97381825-.40069906 2.31109636-.40069906z"/>
        <path d="m16 10.8c2.7931782 0 5-2.04919168 5-4.50000005 0-2.45080836-2.2068218-4.5-5-4.5s-5 2.04919164-5 4.5c0 2.45080837 2.2068218 4.50000005 5 4.50000005zm0 2.2c-3.8659932 0-7-2.9101491-7-6.5 0-3.58985087 3.1340068-6.5 7-6.5s7 2.91014913 7 6.5c0 3.5898509-3.1340068 6.5-7 6.5z" fill-rule="nonzero"/>
    </g>
</svg>