<svg xmlns:xlink="http://www.w3.org/1999/xlink" xmlns="http://www.w3.org/2000/svg" aria-hidden="true" class="valign-middle color-textBlackSoft" focusable="false" preserveAspectRatio="xMidYMid meet" viewBox="0 0 24 24" style="width: 24px; height: 24px; overflow: visible; fill: currentcolor;" width="24"  height="24" ><path d="M16.5,3 C19.5376,3 22,5.46243 22,8.5 C22,11.5926816 19.6383608,14.6853633 16.5381361,17.4534208 L15.983701,17.9384657 C15.8901274,18.0187229 15.7959975,18.0986827 15.7013526,18.1783369 L15.1276331,18.652529 L14.543535,19.1189905 C14.4454306,19.1960678 14.3469763,19.2728065 14.2482134,19.3491983 L13.652264,19.8033203 C13.5524321,19.8782914 13.4523743,19.9528992 13.3521317,20.0271353 L12.7487908,20.4680259 C12.5471588,20.6134587 12.3451184,20.7573388 12.143,20.8996 C12.0571,20.9601 11.9429,20.9601 11.857,20.8996 L11.5539246,20.6850023 L10.6478765,20.0271353 L10.0489708,19.5773247 C9.94963261,19.5016349 9.85056163,19.42559 9.75179918,19.3491983 L9.16325721,18.8867509 C9.06589407,18.8090045 8.96892204,18.7309278 8.87238244,18.652529 L8.29866417,18.1783369 C8.20401941,18.0986827 8.10988967,18.0187229 8.01631623,17.9384657 L7.46188162,17.4534208 C4.36165841,14.6853633 2,11.5926816 2,8.5 C2,5.46243 4.46243,3 7.5,3 C9.36016,3 11.0046,3.92345 12,5.33692 C12.9954,3.92345 14.6398,3 16.5,3 Z M16.5,4.1 C15.1300381,4.1 13.8676241,4.72948264 13.0407059,5.78047369 L12.8993666,5.97027588 L12,7.2473783 L11.1006334,5.97027588 C10.2805325,4.805731 8.9505234,4.1 7.5,4.1 C5.06994322,4.1 3.1,6.06994322 3.1,8.5 C3.1,11.3891322 5.57378772,14.6442152 9.99387234,18.1421811 L10.6714163,18.6686822 C11.017421,18.9328282 11.3742252,19.1983058 11.7416065,19.4650631 L11.999,19.651 L12.2586323,19.464899 C17.6466419,15.5526619 20.7596736,11.9154736 20.8953699,8.71737018 L20.9,8.5 C20.9,6.06993194 18.9300755,4.1 16.5,4.1 Z" fill-opacity="0.58" fill="#000000"></path></svg>