<svg xmlns:xlink="http://www.w3.org/1999/xlink" xmlns="http://www.w3.org/2000/svg" aria-hidden="true" class="valign-middle mr2 color-gold" focusable="false" preserveAspectRatio="xMidYMid meet" viewBox="0 0 24 24" style="width: 24px; height: 24px; overflow: visible; fill: currentcolor;" width="24"  height="24" ><path d="M9.818 3.166a.55.55 0 0 0-.271.572l.914 5.377-4.908 2.895a.55.55 0 0 0 .174 1.013l5.587 1.112.913 5.377a.55.55 0 0 0 1.02.183l2.806-4.867 5.59.524a.55.55 0 0 0 .449-.928l-3.856-4.049 2.301-5.094a.55.55 0 0 0-.73-.726l-5.102 2.34-4.258-3.666a.55.55 0 0 0-.629-.063zm1.069 1.893 3.367 2.9a.55.55 0 0 0 .588.082l4.088-1.875-1.848 4.094a.55.55 0 0 0 .102.607l3.097 3.252-4.476-.42a.55.55 0 0 0-.53.274l-2.218 3.847-.723-4.244a.55.55 0 0 0-.434-.447l-4.545-.904 3.99-2.354a.55.55 0 0 0 .264-.566ZM17.375.848a.25.25 0 0 0-.25.148c-.247.566-.334.828-.395.893a.25.25 0 0 0-.005.006c-.03.034-.072.062-.186.113-.114.05-.288.117-.521.23a.25.25 0 0 0-.036.428c.21.151.368.247.471.316.103.07.139.102.162.141a.25.25 0 0 0 .004.008c.047.073.087.345.23.943a.25.25 0 0 0 .473.043c.248-.565.335-.827.395-.892a.25.25 0 0 0 .004-.006c.03-.035.073-.063.187-.114.114-.05.286-.118.52-.232a.25.25 0 0 0 .037-.428c-.21-.15-.368-.245-.47-.314-.104-.07-.142-.104-.165-.143a.25.25 0 0 0-.004-.006c-.047-.073-.087-.346-.23-.945a.25.25 0 0 0-.221-.19Zm-.086.972c.03.122.052.328.117.43.08.13.19.215.309.295.023.016.062.044.088.06a8.775 8.775 0 0 0-.098.043.988.988 0 0 0-.357.239c-.082.09-.138.29-.19.406-.03-.123-.051-.33-.117-.432a.974.974 0 0 0-.31-.295l-.088-.058.1-.045a.971.971 0 0 0 .357-.238c.081-.09.137-.29.19-.405zm.805 16.998a.25.25 0 0 0-.235.143c-.373.782-.477 1.131-.615 1.26a.25.25 0 0 0-.006.004c-.134.132-.479.212-1.265.54a.25.25 0 0 0-.016.456c.763.384 1.099.488 1.225.63a.25.25 0 0 0 .005.006c.13.139.21.494.53 1.301a.25.25 0 0 0 .457.016c.373-.782.477-1.132.615-1.26a.25.25 0 0 0 .006-.006c.134-.133.477-.213 1.264-.54a.25.25 0 0 0 .017-.454c-.762-.384-1.099-.488-1.224-.63a.25.25 0 0 0-.006-.007c-.13-.138-.21-.493-.53-1.3a.25.25 0 0 0-.222-.159Zm-.03.836c.121.358.227.76.415.961.186.21.573.348.925.502-.361.129-.757.237-.957.434-.2.187-.334.58-.478.928-.121-.36-.227-.762-.416-.963-.186-.209-.572-.345-.922-.498.36-.129.755-.24.955-.436.2-.187.334-.58.478-.928zM22.5 8.75a.754.754 0 0 0-.75.75c0 .411.339.75.75.75s.75-.339.75-.75a.754.754 0 0 0-.75-.75zm0 .5c.141 0 .25.109.25.25 0 .141-.109.25-.25.25a.246.246 0 0 1-.25-.25c0-.141.109-.25.25-.25zm-19 6.5a.75.75 0 0 1-.75.75.75.75 0 0 1-.75-.75.75.75 0 0 1 .75-.75.75.75 0 0 1 .75.75Zm1.5-10c-.687 0-1.25.563-1.25 1.25S4.313 8.25 5 8.25 6.25 7.687 6.25 7 5.687 5.75 5 5.75Zm0 .5c.417 0 .75.333.75.75s-.333.75-.75.75A.746.746 0 0 1 4.25 7c0-.417.333-.75.75-.75Zm5.746 7.771-8.41 8.41a.55.55 0 0 0 .777.78l8.328-8.328-.127-.748z" fill="#CBA258"></path></svg>