<svg xmlns:xlink="http://www.w3.org/1999/xlink" xmlns="http://www.w3.org/2000/svg" aria-hidden="true" class="valign-middle color-greenAccent caretIcon self-center ml-auto sb-animator-fadeGrow-appear-done sb-animator-fadeGrow-enter-done" focusable="false" preserveAspectRatio="xMidYMid meet" viewBox="0 0 24 24" style="width: 24px; height: 24px; overflow: visible; fill: currentcolor; transition-delay: 100ms;" width="24"  height="24" ><path d="M11.4135 16.2678C11.5585 16.4158 11.7545 16.4998 11.9595 16.4998C12.1645 16.4998 12.3605 16.4158 12.5055 16.2678L17.7745 10.8538C18.0756 10.5438 18.0756 10.0418 17.7745 9.73175C17.4725 9.42275 16.9835 9.42275 16.6825 9.73175L11.9595 14.5848L7.31851 9.81675C7.0165 9.50675 6.5275 9.50675 6.2265 9.81675C5.9245 10.1268 5.9245 10.6288 6.2265 10.9388L11.4135 16.2678Z" fill="#00754A"></path><path d="M23 12C23 18.0751 18.0751 23 12 23C5.92487 23 1 18.0751 1 12C1 5.92487 5.92487 1 12 1C18.0751 1 23 5.92487 23 12ZM21.5 12C21.5 6.75329 17.2467 2.5 12 2.5C6.75329 2.5 2.5 6.75329 2.5 12C2.5 17.2467 6.75329 21.5 12 21.5C17.2467 21.5 21.5 17.2467 21.5 12Z" fill="#00754A"></path></svg>