<svg xmlns:xlink="http://www.w3.org/1999/xlink" xmlns="http://www.w3.org/2000/svg" aria-hidden="true" class="valign-middle " focusable="false" preserveAspectRatio="xMidYMid meet" viewBox="0 0 24 24" style="width: 24px; height: 24px; overflow: visible; fill: currentcolor;" width="24"  height="24" ><path d="M10.98 11.57c.559 0 1.09.244 1.455.667.222.259.425.533.606.822l.173.294 1.62 2.905c.084.15.136.317.154.487l.007.13.003 2.09-.01.137c-.02.142-.062.277-.124.4v1.218a1.3 1.3 0 01-.756 1.181l3.442-.001a.55.55 0 01.09 1.093l-.09.007H1.05a.55.55 0 01-.09-1.093l.09-.007 1.856.001a1.301 1.301 0 01-.75-1.048l-.007-.133v-1.49l.006-.073a2.018 2.018 0 01-.248-.81l-.008-.178v-1.288c0-.178.037-.353.11-.514l.06-.119 1.68-2.924c.215-.374.457-.73.724-1.069.307-.39.76-.633 1.25-.677l.164-.008h5.093zm.169 8.629H5.864v.52a1.3 1.3 0 01-.756 1.182h6.798a1.301 1.301 0 01-.75-1.048l-.007-.133v-.521zm-7.9-.116v.637a.2.2 0 00.147.193l.053.007h1.115a.2.2 0 00.193-.147l.007-.053v-.521l-.834.001c-.24 0-.468-.041-.681-.117zm10.515.114l-.035.003-1.48-.001v.52a.2.2 0 00.147.194l.053.007h1.115a.2.2 0 00.193-.147l.007-.053v-.523zM10.98 12.67H5.887a.702.702 0 00-.551.267 7.706 7.706 0 00-.437.613l-.196.322-1.681 2.924-.017.041-.006.044v1.288c0 .478.36.871.822.925l.109.006h9.8a.19.19 0 00.152-.08l.012-.029.005-.061-.004-2.054-.006-.042-.016-.04-.503-.903H5.489a.55.55 0 01-.09-1.092l.09-.007 7.268-.001-.504-.903a5.637 5.637 0 00-.471-.712l-.18-.221a.82.82 0 00-.504-.276l-.118-.009zM22.45 1c.273 0 .5.2.543.46l.007.09v20.9c0 .273-.2.5-.46.543l-.09.007H20.2a.55.55 0 01-.543-.46l-.007-.09-.001-4.304-.07-.029-.084-.052-2.852-2.14h-.568a.55.55 0 01-.09-1.093l.09-.007h3.574V9.55H15a.55.55 0 01-.543-.46L14.45 9V6c0-.273.2-.5.46-.543L15 5.45l.869-.001 3.781-3.308V1.55c0-.273.2-.5.46-.543L20.2 1h2.25zm-.55 1.1h-1.15v19.8h1.15V2.1zm-2.251 13.825h-1.173l1.173.88v-.88zM19.45 6.55h-3.9v1.9h3.9v-1.9zm.2-3.08l-2.262 1.979h2.262V3.47z" fill="#1E3932"></path></svg>