<svg width="32" height="33" viewBox="0 0 32 33" fill="none" xmlns="http://www.w3.org/2000/svg">
<g id="Nav - Global footer &#226;&#134;&#146; List &#226;&#134;&#146; Item &#226;&#134;&#146; Link - facebook &#226;&#134;&#146; SVG">
<path id="Vector" d="M15.9997 0.5C24.8226 0.5 32 7.67794 32 16.5003C32 25.3226 24.8226 32.5 15.9997 32.5C7.17736 32.5 0 25.3226 0 16.5003C0 7.67794 7.17736 0.5 15.9997 0.5ZM20.5392 6.9H17.0371C14.9819 6.9 13.3152 8.44807 13.3152 10.3582V13.0987H11.4602C11.3168 13.0987 11.2 13.2067 11.2 13.3405V16.1831C11.2 16.3163 11.3168 16.4243 11.4602 16.4243H13.3152V25.8582C13.3152 25.992 13.432 26.1 13.5754 26.1H17.2853C17.4293 26.1 17.5455 25.992 17.5455 25.8582V16.4243H20.2354C20.3705 16.4243 20.4836 16.3286 20.4943 16.2031L20.7533 13.3604C20.7665 13.2196 20.6459 13.0987 20.4937 13.0987H17.5455V11.0818C17.5455 10.6094 17.9585 10.2262 18.4669 10.2262H20.5392C20.6832 10.2262 20.8 10.1176 20.8 9.98439V7.14178C20.8 7.00856 20.6832 6.9 20.5392 6.9Z" fill="black" fill-opacity="0.87"/>
</g>
</svg>
