<svg xmlns:xlink="http://www.w3.org/1999/xlink" xmlns="http://www.w3.org/2000/svg" width="24" height="40" fill="none"><path d="M2.91 8 2 11h20l-.91-3H2.91ZM21 11H3l2.26 25.995A1.1 1.1 0 0 0 6.356 38h12.04a1.1 1.1 0 0 0 1.099-1.036L21 11Z" fill="#fff"/><path fill-rule="evenodd" clip-rule="evenodd" d="M2.909 7.45a.55.55 0 0 0-.526.39l-.91 3a.55.55 0 0 0 .527.71h.496l2.216 25.493a1.65 1.65 0 0 0 1.644 1.507h12.04a1.65 1.65 0 0 0 1.648-1.555l1.475-25.445H22a.55.55 0 0 0 .526-.71l-.909-3a.55.55 0 0 0-.526-.39H2.909Zm17.508 4.1H3.6l2.208 25.398a.55.55 0 0 0 .548.502h12.04a.55.55 0 0 0 .55-.518l1.471-25.382Zm.842-1.1-.576-1.9H3.317l-.576 1.9H21.26Z" fill="#000"/><circle cx="12" cy="22.5" r="4.95" fill="#00754A" stroke="#000" stroke-width="1.1"/></svg>