<svg xmlns:xlink="http://www.w3.org/1999/xlink" xmlns="http://www.w3.org/2000/svg" width="24" height="40" fill="none"><path fill-rule="evenodd" clip-rule="evenodd" d="M2.383 7.84a.55.55 0 0 1 .526-.39h18.182a.55.55 0 0 1 .526.39l.91 3a.55.55 0 0 1-.527.71h-.481l-1.475 25.445a1.65 1.65 0 0 1-1.647 1.555H6.357a1.65 1.65 0 0 1-1.645-1.507L2.496 11.55H2a.55.55 0 0 1-.526-.71l.909-3ZM3.6 11.55h16.817l-1.471 25.382a.55.55 0 0 1-.55.518H6.357a.55.55 0 0 1-.548-.502L3.6 11.55Zm17.083-3 .576 1.9H2.74l.576-1.9h17.366ZM16.4 22.5a4.4 4.4 0 1 1-8.8 0 4.4 4.4 0 0 1 8.8 0Zm1.1 0a5.5 5.5 0 1 1-11 0 5.5 5.5 0 0 1 11 0Z" fill="#000" fill-opacity=".58"/></svg>