<svg width="32" height="33" viewBox="0 0 32 33" fill="none" xmlns="http://www.w3.org/2000/svg">
<g id="Nav - Global footer &#226;&#134;&#146; List &#226;&#134;&#146; Item &#226;&#134;&#146; Link - instagram &#226;&#134;&#146; SVG">
<path id="Vector" d="M15.9997 0.5C24.8226 0.5 32 7.67794 32 16.5003C32 25.3226 24.8226 32.5 15.9997 32.5C7.17736 32.5 0 25.3226 0 16.5003C0 7.67794 7.17736 0.5 15.9997 0.5ZM20 7.16667H12C9.05448 7.16667 6.66667 9.55448 6.66667 12.5V20.5C6.66667 23.4455 9.05448 25.8333 12 25.8333H20C22.9455 25.8333 25.3333 23.4455 25.3333 20.5V12.5C25.3333 9.55448 22.9455 7.16667 20 7.16667ZM19.6863 8.81373C21.8954 8.81373 23.6863 10.6046 23.6863 12.8137V20.1863L23.6795 20.4213C23.5578 22.521 21.8165 24.1863 19.6863 24.1863H12.3137L12.0787 24.1795C9.97895 24.0578 8.31373 22.3165 8.31373 20.1863V12.8137L8.32052 12.5787C8.44218 10.479 10.1835 8.81373 12.3137 8.81373H19.6863ZM15.7255 12.1078C13.1482 12.1078 11.0588 14.1972 11.0588 16.7745C11.0588 19.3518 13.1482 21.4412 15.7255 21.4412C18.3028 21.4412 20.3922 19.3518 20.3922 16.7745C20.3922 14.1972 18.3028 12.1078 15.7255 12.1078ZM15.7255 13.7549C17.3932 13.7549 18.7451 15.1068 18.7451 16.7745C18.7451 18.4422 17.3932 19.7941 15.7255 19.7941C14.0578 19.7941 12.7059 18.4422 12.7059 16.7745C12.7059 15.1068 14.0578 13.7549 15.7255 13.7549ZM20.9412 10.4608C20.3347 10.4608 19.8431 10.9524 19.8431 11.5588C19.8431 12.1653 20.3347 12.6569 20.9412 12.6569C21.5476 12.6569 22.0392 12.1653 22.0392 11.5588C22.0392 10.9524 21.5476 10.4608 20.9412 10.4608Z" fill="black" fill-opacity="0.87"/>
</g>
</svg>
