<svg width="51" height="51" viewBox="0 0 51 51" fill="none" xmlns="http://www.w3.org/2000/svg">
<g id="logo_starbucks" clip-path="url(#clip0_18_28)">
<path id="Vector" d="M25.5001 50.1791C39.13 50.1791 50.1792 39.1299 50.1792 25.5C50.1792 11.8701 39.13 0.820923 25.5001 0.820923C11.8702 0.820923 0.821045 11.8701 0.821045 25.5C0.821045 39.1299 11.8702 50.1791 25.5001 50.1791Z" fill="white"/>
<path id="Vector_2" d="M27.9816 11.4906C27.7653 11.452 26.7223 11.2767 25.4999 11.2767C24.2776 11.2767 23.2345 11.4511 23.0182 11.4906C22.894 11.5128 22.8463 11.3911 22.9409 11.3203C23.0264 11.257 25.4991 9.37494 25.4991 9.37494L28.0565 11.3203C28.1527 11.3911 28.1058 11.5128 27.9816 11.4906ZM23.7092 23.7109C23.7092 23.7109 23.5784 23.7578 23.5438 23.8729C24.062 24.2711 24.419 25.1767 25.4999 25.1767C26.5808 25.1767 26.9378 24.2711 27.4552 23.8729C27.4215 23.7569 27.2907 23.7109 27.2907 23.7109C27.2907 23.7109 26.6137 23.8705 25.4999 23.8705C24.3861 23.8705 23.7092 23.7109 23.7092 23.7109ZM25.4999 22.1866C25.1997 22.1866 25.1339 22.0731 24.929 22.0739C24.7341 22.0748 24.3557 22.2302 24.2734 22.3725C24.2792 22.4449 24.3055 22.5099 24.3582 22.5675C24.7958 22.6333 24.9932 22.8768 25.5007 22.8768C26.0083 22.8768 26.2049 22.6333 26.6433 22.5675C26.6943 22.5099 26.7223 22.4457 26.728 22.3725C26.6466 22.2302 26.2674 22.0756 26.0716 22.0739C25.866 22.0723 25.7993 22.1866 25.4999 22.1866ZM50.1411 26.8531C50.1099 27.4429 50.0572 28.0278 49.9848 28.6061C47.1914 29.0683 46.1927 26.5792 43.331 26.7042C43.5021 27.3113 43.6411 27.9299 43.748 28.5616C46.108 28.56 47.0589 30.7661 49.6846 30.4412C49.5464 31.1157 49.3803 31.7812 49.1886 32.4368C47.1124 32.6408 46.3811 30.5778 43.9784 30.6345C43.9981 30.9767 44.0088 31.3222 44.0088 31.671L43.9989 32.2476L48.6646 34.0277C48.4203 34.6915 48.1472 35.3405 47.8494 35.9764C46.4469 35.8991 45.9633 34.1001 43.8295 34.2432C43.7653 34.7047 43.6839 35.1604 43.5868 35.6103C45.4401 35.4804 45.839 37.1864 47.1667 37.3246C46.8286 37.9415 46.4642 38.542 46.0768 39.1269C45.2904 38.7057 44.6085 37.4348 43.1171 37.3567C43.2701 36.8845 43.4042 36.4058 43.5177 35.9188C42.195 35.9188 40.6823 35.403 39.4139 34.2481C39.8252 31.9071 36.1918 29.5232 36.1918 27.809C36.1918 25.9466 37.1337 24.916 37.1337 22.4054C37.1337 20.5423 36.2288 18.5212 34.8642 17.1401C34.6001 16.8719 34.3295 16.6548 34.0186 16.4598C35.2722 18.0112 36.2346 19.8505 36.2346 21.981C36.2346 24.3451 35.1348 25.5929 35.1348 27.7752C35.1348 29.9567 38.3264 31.8446 38.3264 34.0943C38.3264 34.9794 38.0434 35.8439 37.1106 37.5417C38.5436 38.973 40.41 39.7537 41.6143 39.7537C42.005 39.7537 42.2148 39.6344 42.3546 39.3276C42.4747 39.0627 42.589 38.7945 42.6968 38.5239C43.994 38.5741 44.5879 39.7528 45.306 40.2234C44.912 40.7523 44.4982 41.2631 44.0647 41.7575C43.5835 41.2244 42.937 40.3278 41.9902 40.0786C41.8207 40.4076 41.6414 40.7325 41.453 41.0509C42.2682 41.273 42.8259 42.0956 43.2578 42.6368C42.7922 43.1188 42.3077 43.5811 41.8035 44.0253C41.4884 43.5351 40.9982 42.9132 40.4487 42.5776C40.2455 42.8523 40.0341 43.1205 39.8161 43.3812C40.2833 43.6979 40.6954 44.268 40.9644 44.7327C40.382 45.2 39.7799 45.6433 39.1564 46.0579C38.8488 43.5515 35.4276 41.834 36.3497 38.9261C36.047 39.4386 35.6859 40.0794 35.6859 40.851C35.6859 42.956 37.9283 44.6266 38.1068 46.7185C37.642 46.9965 37.1666 47.2581 36.6821 47.5057C36.6015 45.2065 34.2275 42.6903 34.2275 40.8033C34.2275 38.6966 36.9864 36.581 36.9864 34.0943C36.9864 31.606 33.803 29.8835 33.803 27.6987C33.803 25.5156 35.157 24.2595 35.157 21.4611C35.157 19.4112 34.1831 17.3367 32.6786 16.0115C32.4121 15.7763 32.1497 15.5895 31.8346 15.4258C33.2536 17.1278 34.0761 18.6717 34.0761 21.0145C34.0761 23.6459 32.5248 25.1068 32.5248 27.6831C32.5248 30.2603 35.6489 31.6932 35.6489 34.0951C35.6489 36.4971 32.7411 38.5214 32.7411 40.9892C32.7411 43.234 35.3043 45.4747 35.3421 48.1382C34.7819 48.3825 34.211 48.6055 33.6303 48.8078C33.956 46.1171 31.0713 43.3418 31.0713 41.1463C31.0713 38.746 34.0877 36.683 34.0877 34.0951C34.0877 31.5056 31.0211 30.3022 31.0211 27.6445C31.0211 24.9883 32.9023 23.5176 32.9023 20.5826C32.9023 18.295 31.7729 16.2377 30.1228 14.9627L30.0183 14.8838C29.8629 14.7686 29.7346 14.9076 29.8448 15.0442C31.0128 16.5026 31.6372 17.9775 31.6372 20.1614C31.6372 22.8463 29.4763 25.0278 29.4763 27.6288C29.4763 30.6987 32.3783 31.5764 32.3783 34.0951C32.3783 36.6131 29.2665 38.6276 29.2665 41.3009C29.2665 43.7802 32.2113 46.5317 31.7063 49.3935C31.1157 49.5465 30.5168 49.6797 29.9089 49.7883C30.4617 46.2249 27.5728 43.6659 27.5728 41.3347C27.5728 38.811 30.7957 36.5612 30.7957 34.0951C30.7957 31.7689 28.4826 31.0088 28.1782 28.6291C28.1363 28.3042 27.8755 28.0631 27.5161 28.1232C27.0464 28.2087 26.4442 28.518 25.4983 28.518C24.5523 28.518 23.9502 28.2079 23.4797 28.1232C23.121 28.064 22.8603 28.305 22.8183 28.6291C22.5148 31.0088 20.2 31.7681 20.2 34.0951C20.2 36.5612 23.4237 38.8102 23.4237 41.3347C23.4237 43.6659 20.5348 46.2249 21.0868 49.7883C20.4797 49.6789 19.88 49.5457 19.2894 49.3935C18.7844 46.5317 21.73 43.7802 21.73 41.3009C21.73 38.6276 18.6174 36.6131 18.6174 34.0951C18.6174 31.5764 21.5203 30.6987 21.5203 27.6288C21.5203 25.0278 19.3585 22.8472 19.3585 20.1614C19.3585 17.9783 19.9829 16.5034 21.1518 15.0442C21.2612 14.9076 21.1337 14.7686 20.9774 14.8838L20.8737 14.9627C19.2253 16.2344 18.0967 18.2917 18.0967 20.5793C18.0967 23.5143 19.9779 24.9851 19.9779 27.6412C19.9779 30.2981 16.9113 31.5015 16.9113 34.0918C16.9113 36.6797 19.9278 38.7427 19.9278 41.143C19.9278 43.3393 17.043 46.1139 17.3695 48.8045C16.788 48.6022 16.2171 48.3784 15.6569 48.1349C15.6956 45.4714 18.2571 43.2299 18.2571 40.9859C18.2571 38.5181 15.3509 36.4938 15.3509 34.0918C15.3509 31.6899 18.4734 30.257 18.4734 27.6798C18.4734 25.1035 16.9229 23.6426 16.9229 21.0112C16.9229 18.6685 17.7446 17.1245 19.1636 15.4226C18.8477 15.5862 18.5861 15.773 18.3204 16.0082C16.8159 17.3334 15.8428 19.408 15.8428 21.4578C15.8428 24.2562 17.1968 25.5123 17.1968 27.6955C17.1968 29.8802 14.0134 31.6027 14.0134 34.091C14.0134 36.5777 16.7723 38.6942 16.7723 40.8C16.7723 42.6878 14.3967 45.2041 14.3169 47.5024C13.8324 47.2548 13.357 46.9932 12.8922 46.7152C13.0715 44.6233 15.3131 42.9527 15.3131 40.8477C15.3131 40.0761 14.9528 39.4353 14.6493 38.9229C15.5714 41.8307 12.1503 43.5482 11.8426 46.0546C11.2191 45.64 10.6161 45.1967 10.0346 44.7295C10.3027 44.2655 10.7148 43.6946 11.1829 43.378C10.9641 43.118 10.7535 42.849 10.5503 42.5743C10 42.9099 9.50895 43.5318 9.19472 44.022C8.69212 43.5787 8.2068 43.1155 7.74122 42.6335C8.17308 42.0923 8.73078 41.2697 9.54596 41.0476C9.35759 40.7292 9.17827 40.4051 9.00882 40.0753C8.06203 40.3245 7.41466 41.2211 6.93427 41.7542C6.50077 41.259 6.08619 40.7482 5.69299 40.2201C6.41111 39.7496 7.00501 38.57 8.3014 38.5206C8.40998 38.7904 8.52432 39.0586 8.64441 39.3243C8.78425 39.6311 8.99483 39.7504 9.38474 39.7504C10.589 39.7504 12.4546 38.9697 13.8884 37.5385C12.9556 35.8406 12.6726 34.9761 12.6726 34.091C12.6726 31.8421 15.8642 29.9543 15.8642 27.772C15.8642 25.5896 14.7644 24.3418 14.7644 21.9777C14.7644 19.8472 15.7268 18.0079 16.9804 16.4565C16.6695 16.6515 16.3989 16.8686 16.1348 17.1368C14.7702 18.5187 13.8653 20.539 13.8653 22.4021C13.8653 24.9127 14.808 25.9434 14.808 27.8057C14.808 29.5199 11.1738 31.9038 11.5851 34.2448C10.3167 35.3997 8.80399 35.9155 7.48046 35.9155C7.59562 36.4025 7.7297 36.8812 7.88106 37.3534C6.39054 37.4323 5.70862 38.7032 4.92141 39.1236C4.53316 38.5387 4.16958 37.9382 3.83149 37.3213C5.15832 37.1831 5.55809 35.4771 7.41219 35.607C7.31512 35.1571 7.23287 34.7006 7.1687 34.2399C5.03493 34.0968 4.55125 35.8966 3.14875 35.9731C2.85098 35.3372 2.57788 34.6882 2.33358 34.0244L7.00008 32.2443L6.9902 31.6677C6.9902 31.3189 7.0009 30.9734 7.01982 30.6312C4.61706 30.5753 3.88578 32.6375 1.80959 32.4335C1.61875 31.7779 1.45177 31.1133 1.3144 30.4379C3.93843 30.7629 4.89016 28.5567 7.25096 28.5583C7.3579 27.9266 7.49691 27.308 7.66719 26.701C4.80543 26.5767 3.80682 29.0659 1.01416 28.6028C0.940946 28.0245 0.889124 27.4396 0.857866 26.8498C4.10459 27.2126 5.32201 24.5433 8.27837 24.8699C8.55722 24.1633 8.88132 23.4797 9.24654 22.8217C5.53999 22.1702 4.28145 25.2697 0.831543 24.7934C1.20417 11.4914 12.1058 0.820923 25.4999 0.820923C38.894 0.820923 49.7957 11.4914 50.1683 24.7967C46.7176 25.273 45.459 22.1743 41.7533 22.825C42.1177 23.483 42.4418 24.1666 42.7215 24.8732C45.6762 24.5458 46.8936 27.2159 50.1411 26.8531ZM14.8919 16.5026C13.0748 15.7598 10.8753 15.9309 8.99648 17.1376C8.70529 15.3896 7.75685 13.8366 6.40617 12.8997C6.21945 12.7706 6.02532 12.8931 6.04259 13.1095C6.32803 16.8028 4.16875 20.0101 1.51346 22.8291C4.25019 23.6516 6.57974 20.1277 10.1292 21.3575C11.4025 19.4614 13.0197 17.8138 14.8919 16.5026ZM25.4999 14.2685C23.209 14.2685 21.2899 15.564 20.7873 17.238C20.7487 17.3663 20.8013 17.4494 20.9494 17.3828C21.3615 17.1977 21.8304 17.1088 22.3396 17.1088C23.274 17.1088 24.0974 17.4519 24.5844 18.0491C24.7999 18.7598 24.818 19.7888 24.5745 20.3761C24.1895 20.2898 24.0513 19.992 23.6754 19.992C23.2995 19.992 23.0083 20.256 22.3708 20.256C21.7341 20.256 21.6593 19.955 21.2406 19.955C20.7479 19.955 20.6574 20.4625 20.6574 21.035C20.6574 23.5875 23.0034 27.0999 25.4991 27.0999C27.994 27.0999 30.34 23.5875 30.34 21.035C30.34 20.4625 30.2223 19.9722 29.7074 19.9056C29.4508 20.0907 29.2147 20.256 28.6274 20.256C27.9899 20.256 27.8138 19.992 27.4387 19.992C26.9855 19.992 27.0307 20.9478 26.4928 21.0013C26.1341 20.1392 26.1168 19.0337 26.4146 18.0491C26.9024 17.4519 27.725 17.1088 28.6594 17.1088C29.1686 17.1088 29.6408 17.1985 30.0488 17.3828C30.1977 17.4494 30.2495 17.3655 30.2108 17.238C29.7091 15.564 27.7908 14.2685 25.4999 14.2685ZM29.1472 17.9306C28.5977 17.9306 27.9537 18.0992 27.549 18.55C27.507 18.6726 27.507 18.8552 27.5662 18.9769C28.5624 18.6356 29.4409 18.6224 29.8653 19.097C30.0916 18.8914 30.1639 18.7063 30.1639 18.4916C30.1639 18.1601 29.8267 17.9306 29.1472 17.9306ZM21.1345 19.097C21.6149 18.6158 22.6275 18.6364 23.6795 19.0246C23.7256 18.5015 22.7887 17.9298 21.8526 17.9298C21.1723 17.9298 20.8359 18.1593 20.8359 18.4916C20.8359 18.7063 20.9083 18.8922 21.1345 19.097ZM36.9231 10.4566C35.1142 10.5858 33.5431 11.2068 32.2722 12.2416C32.8118 10.7116 33.497 9.37329 34.3657 8.07608C32.0625 8.32039 30.1368 9.16271 28.7318 10.6022L27.632 7.71908L30.0735 5.5631L26.8045 5.33195L25.4999 2.2917L24.1945 5.33195L20.9255 5.5631L23.367 7.71908L22.268 10.6022C20.8622 9.16271 18.9365 8.32039 16.635 8.07608C17.502 9.37412 18.1872 10.7125 18.7268 12.2416C17.4567 11.206 15.8856 10.585 14.0767 10.4566C15.1617 11.8517 16.1233 13.339 16.8357 14.9381C16.9163 15.1182 17.089 15.1774 17.2758 15.0845C19.7534 13.8531 22.5452 13.1605 25.4991 13.1605C28.453 13.1605 31.244 13.8539 33.7233 15.0845C33.91 15.1774 34.0827 15.1182 34.1625 14.9381C34.8757 13.339 35.8373 11.8517 36.9231 10.4566ZM40.8723 21.3591C44.4201 20.1294 46.7505 23.6525 49.4872 22.8307C46.8319 20.0117 44.6734 16.8045 44.9589 13.1111C44.9762 12.8948 44.7812 12.7714 44.5953 12.9013C43.2438 13.8383 42.2954 15.3913 42.005 17.1393C40.1254 15.9326 37.9266 15.7606 36.1096 16.5042C37.9793 17.8138 39.5973 19.4614 40.8723 21.3591Z" fill="#006241"/>
<g id="Group">
<path id="Vector_3" d="M44.0863 46.8953H42.8311V50.272H42.3811V46.8953H41.1292V46.4758H44.0863V46.8953ZM44.6136 46.4758H45.2807L46.5722 49.4519H46.5812L47.876 46.4758H48.5324V50.272H48.0791V47.0895H48.0693L46.7095 50.272H46.4356L45.071 47.0895H45.0619V50.272H44.6136V46.4758Z" fill="#006241"/>
</g>
</g>
<defs>
<clipPath id="clip0_18_28">
<rect width="51" height="51" fill="white"/>
</clipPath>
</defs>
</svg>
