<svg xmlns:xlink="http://www.w3.org/1999/xlink" xmlns="http://www.w3.org/2000/svg" aria-hidden="true" class="valign-middle " focusable="false" preserveAspectRatio="xMidYMid meet" viewBox="0 0 24 24" style="width: 24px; height: 24px; overflow: visible; fill: currentcolor;" width="24"  height="24" ><path d="M7.676 18.837l-2.472-2.48-2.015 2.023-.476 2.914 2.95-.44 2.012-2.017zm7.247-12.223l-8.597 8.62 2.472 2.478 8.596-8.62-2.47-2.478zm5.693 1.496l-1.504 1.508c-.012.014-.016.03-.03.044-.01.013-.028.016-.042.027l-9.647 9.674c-.012.014-.016.03-.028.042-.012.013-.03.016-.042.028L6.6 22.166c-.122.12-.277.2-.445.223l-4.048.602c-.04.006-.078.008-.117.008-.253 0-.476-.128-.623-.322-.26-.167-.41-.475-.356-.8l.655-4.007c.027-.164.105-.316.222-.432l12.475-12.51 1.563-1.567c.31-.31.81-.31 1.12 0 .31.31.31.814 0 1.124l-1 1.005 2.47 2.478.98-.982c.31-.31.812-.31 1.12 0 .31.31.31.813 0 1.124zm1.59-1.91c-.202 0-.405-.078-.56-.233l-3.6-3.61c-.31-.31-.31-.813 0-1.124.31-.31.812-.31 1.122 0l3.6 3.61c.31.31.31.814 0 1.124-.156.155-.36.232-.562.232z" fill-opacity="0.58" fill="#000000"></path></svg>