<svg width="32" height="33" viewBox="0 0 32 33" fill="none" xmlns="http://www.w3.org/2000/svg">
<g id="Nav - Global footer &#226;&#134;&#146; List &#226;&#134;&#146; Item &#226;&#134;&#146; Link - pinterest &#226;&#134;&#146; SVG">
<path id="Vector" d="M15.9997 0.5C24.8226 0.5 32 7.67794 32 16.5003C32 25.3226 24.8226 32.5 15.9997 32.5C7.17736 32.5 0 25.3226 0 16.5003C0 7.67794 7.17736 0.5 15.9997 0.5ZM22.325 13.5679C21.8769 9.96666 18.6333 8.13272 15.1764 8.56132C12.4441 8.89999 9.71952 11.3498 9.60595 14.8486C9.54531 16.6803 9.93895 18.1204 11.2087 18.7772C11.6512 19.0066 12.1527 18.6964 12.2052 18.1585C12.2894 17.2916 11.625 16.8892 11.4975 16.0126C10.8244 11.3988 16.3034 8.24883 19.1708 11.4716C21.1549 13.704 19.8486 20.5673 16.6487 19.8547C13.5834 19.1722 18.1497 13.708 15.7021 12.6362C13.7139 11.7647 12.6574 15.3023 13.6003 17.0605C13.1039 19.7739 12.0931 22.346 12.2406 25.5865C12.2637 26.0873 12.8377 26.2837 13.1214 25.8933C14.0983 24.5528 14.5109 22.5868 14.8609 20.5531C15.6466 21.0813 16.0675 21.6317 17.069 21.7171C20.7644 22.033 22.8286 17.632 22.325 13.5679Z" fill="black" fill-opacity="0.87"/>
</g>
</svg>
