<svg xmlns:xlink="http://www.w3.org/1999/xlink" xmlns="http://www.w3.org/2000/svg" aria-hidden="true" class="valign-middle " focusable="false" preserveAspectRatio="xMidYMid meet" viewBox="0 0 24 24" style="width: 24px; height: 24px; overflow: visible; fill: currentcolor;" width="24"  height="24" ><path d="M12 22.75c5.937 0 10.75-4.813 10.75-10.75S17.937 1.25 12 1.25 1.25 6.063 1.25 12 6.063 22.75 12 22.75zm0-1.5c-5.11 0-9.25-4.14-9.25-9.25S6.89 2.75 12 2.75s9.25 4.14 9.25 9.25-4.14 9.25-9.25 9.25z" fill="#00754A"></path><path d="M11.214 11.25V7.366c0-.434.352-.786.786-.786.434 0 .786.352.786.786v3.884h3.86c.414 0 .75.336.75.75s-.336.75-.75.75h-3.86v3.882c0 .434-.352.786-.786.786-.434 0-.786-.352-.786-.786V12.75H7.38c-.414 0-.75-.336-.75-.75s.336-.75.75-.75h3.834z" fill="#00754A"></path></svg>