<svg width="24" height="24" viewBox="0 0 24 24" fill="none" xmlns="http://www.w3.org/2000/svg">
<path d="M8.90201 17.656C8.83241 17.7256 8.7772 17.8082 8.73953 17.8992C8.70186 17.9901 8.68247 18.0876 8.68247 18.186C8.68247 18.2845 8.70186 18.3819 8.73953 18.4729C8.7772 18.5638 8.83241 18.6464 8.90201 18.716C8.97161 18.7856 9.05424 18.8408 9.14517 18.8785C9.23611 18.9162 9.33358 18.9356 9.43201 18.9356C9.53044 18.9356 9.6279 18.9162 9.71884 18.8785C9.80978 18.8408 9.89241 18.7856 9.96201 18.716L16.38 12.3C16.4497 12.2305 16.5049 12.1478 16.5426 12.0569C16.5804 11.966 16.5998 11.8685 16.5998 11.77C16.5998 11.6716 16.5804 11.5741 16.5426 11.4831C16.5049 11.3922 16.4497 11.3096 16.38 11.24L9.86001 4.72002C9.79041 4.65042 9.70778 4.59521 9.61684 4.55754C9.5259 4.51988 9.42844 4.50049 9.33001 4.50049C9.23158 4.50049 9.13411 4.51988 9.04317 4.55754C8.95224 4.59521 8.86961 4.65042 8.80001 4.72002C8.73041 4.78962 8.6752 4.87225 8.63753 4.96319C8.59986 5.05413 8.58047 5.15159 8.58047 5.25002C8.58047 5.34845 8.59986 5.44592 8.63753 5.53686C8.6752 5.62779 8.73041 5.71042 8.80001 5.78002L14.79 11.77L8.90001 17.656H8.90201Z" fill="black"/>
</svg>
