<svg xmlns:xlink="http://www.w3.org/1999/xlink" xmlns="http://www.w3.org/2000/svg" width="24" height="40" fill="none"><path fill-rule="evenodd" clip-rule="evenodd" d="M2.383 15.84a.55.55 0 0 1 .526-.39h18.182a.55.55 0 0 1 .526.39l.91 3a.55.55 0 0 1-.527.71h-.494l-1.44 17.485a1.65 1.65 0 0 1-1.644 1.515H6.32a1.65 1.65 0 0 1-1.637-1.448L2.513 19.55H2a.55.55 0 0 1-.526-.71l.909-3Zm1.24 3.71h16.78L18.97 36.945a.55.55 0 0 1-.548.505H6.32a.55.55 0 0 1-.546-.483L3.622 19.55Zm17.06-3 .576 1.9H2.74l.576-1.9h17.366ZM15.9 27a3.9 3.9 0 1 1-7.8 0 3.9 3.9 0 0 1 7.8 0Zm1.1 0a5 5 0 1 1-10 0 5 5 0 0 1 10 0Z" fill="#000" fill-opacity=".58"/></svg>