<svg xmlns:xlink="http://www.w3.org/1999/xlink" xmlns="http://www.w3.org/2000/svg" width="24" height="40" fill="none"><path d="M2.91 16 2 19h20l-.91-3H2.91ZM21 19H3l2.229 18.035A1.1 1.1 0 0 0 6.32 38h12.102a1.1 1.1 0 0 0 1.096-1.01L21 19Z" fill="#fff"/><path fill-rule="evenodd" clip-rule="evenodd" d="M2.909 15.45a.55.55 0 0 0-.526.39l-.91 3a.55.55 0 0 0 .527.71h.514l2.169 17.552A1.65 1.65 0 0 0 6.32 38.55h12.102a1.65 1.65 0 0 0 1.644-1.515l1.44-17.485H22a.55.55 0 0 0 .526-.71l-.909-3a.55.55 0 0 0-.526-.39H2.909Zm17.494 4.1H3.623l2.151 17.417a.55.55 0 0 0 .546.483h12.102a.55.55 0 0 0 .548-.505l1.433-17.395Zm.856-1.1-.576-1.9H3.317l-.576 1.9H21.26Z" fill="#000"/><circle cx="12" cy="27" r="4.45" fill="#00754A" stroke="#000" stroke-width="1.1"/></svg>