<svg width="32" height="33" viewBox="0 0 32 33" fill="none" xmlns="http://www.w3.org/2000/svg">
<g id="Nav - Global footer &#226;&#134;&#146; List &#226;&#134;&#146; Item &#226;&#134;&#146; Link - spotify &#226;&#134;&#146; SVG">
<path id="Vector" d="M16 0.5C24.8366 0.5 32 7.66349 32 16.5001C32 25.3365 24.8366 32.5 16 32.5C7.16345 32.5 0 25.3365 0 16.5001C0 7.66349 7.16345 0.5 16 0.5ZM14.756 19.1667C13.2676 19.1679 11.4703 19.4171 9.99826 19.8275C9.51886 19.961 9.25525 20.4133 9.35385 20.9319C9.44841 21.4292 9.86452 21.7275 10.3318 21.6068C11.3868 21.3346 12.4508 21.1375 13.5292 21.0465C14.8174 20.9376 16.0989 20.9912 17.3715 21.2563C18.8235 21.5589 20.1863 22.1375 21.4512 23.0211C21.855 23.3033 22.3294 23.1619 22.5566 22.7118C22.7796 22.2701 22.6563 21.7292 22.2545 21.4579C21.8989 21.2177 21.5395 20.9821 21.1694 20.7741C19.1451 19.6374 16.9939 19.169 14.756 19.1667ZM13.0274 15.1731C11.579 15.2306 10.1567 15.438 8.7678 15.8232C8.18753 15.9842 7.88101 16.4853 8.04313 16.9922C8.20677 17.5038 8.76932 17.7612 9.36197 17.6145C9.85194 17.4931 10.3444 17.3742 10.8429 17.2887C12.7798 16.9563 14.7246 16.949 16.6717 17.2127C18.7154 17.4893 20.6553 18.0425 22.4355 19.024C22.9445 19.3046 23.5574 19.1586 23.8584 18.697C24.1432 18.2601 23.9883 17.6918 23.4855 17.4251C23.0026 17.1691 22.5144 16.9174 22.0088 16.7031C19.4719 15.6279 16.789 15.1685 14.0064 15.171C13.6801 15.171 13.3532 15.16 13.0274 15.1731ZM14.7514 9.85384C13.6245 9.80541 12.4994 9.84391 11.3764 9.95712C10.0781 10.0883 8.79699 10.3202 7.54735 10.7341C6.89197 10.9514 6.52813 11.6808 6.71603 12.38C6.90887 13.0969 7.57354 13.5001 8.23898 13.2867C9.82874 12.7769 11.4587 12.5652 13.1077 12.5126C14.8516 12.457 16.5839 12.5958 18.2999 12.9491C20.1295 13.326 21.8884 13.9213 23.5082 14.9518C23.6803 15.0613 23.8917 15.0967 24.0852 15.1667C24.0891 15.1557 24.0935 15.1447 24.0977 15.1338C24.1783 15.1242 24.2603 15.122 24.3393 15.1037C24.8631 14.9835 25.2304 14.5582 25.3187 13.9753C25.3957 13.4668 25.1657 12.9129 24.714 12.648C24.1039 12.2899 23.4905 11.9296 22.852 11.6394C20.262 10.4623 17.5397 9.97389 14.7514 9.85384Z" fill="black" fill-opacity="0.87"/>
</g>
</svg>
