<svg xmlns:xlink="http://www.w3.org/1999/xlink" xmlns="http://www.w3.org/2000/svg" aria-hidden="true" class="valign-middle " focusable="false" preserveAspectRatio="xMidYMid meet" viewBox="0 0 24 24" style="width: 24px; height: 24px; overflow: visible; fill: currentcolor;" width="24"  height="24" ><path d="M12 1.35C6.118 1.35 1.35 6.118 1.35 12c0 5.882 4.768 10.65 10.65 10.65 5.882 0 10.65-4.768 10.65-10.65 0-5.882-4.768-10.65-10.65-10.65zm0 1.5c5.053 0 9.15 4.097 9.15 9.15s-4.097 9.15-9.15 9.15S2.85 17.053 2.85 12 6.947 2.85 12 2.85zm-.75 7.928v6.486c0 .414.336.75.75.75s.75-.336.75-.75v-6.486c0-.414-.336-.75-.75-.75s-.75.336-.75.75zm1.5-3.056v-.61c0-.415-.336-.75-.75-.75s-.75.335-.75.75v.61c0 .414.336.75.75.75s.75-.336.75-.75z" fill-opacity="0.58" fill="#000000"></path></svg>