<svg xmlns:xlink="http://www.w3.org/1999/xlink" xmlns="http://www.w3.org/2000/svg" width="24" height="40" fill="none"><path fill-rule="evenodd" clip-rule="evenodd" d="M2.383 11.84a.55.55 0 0 1 .526-.39h18.182a.55.55 0 0 1 .526.39l.91 3a.55.55 0 0 1-.527.71h-.486l-1.46 21.462a1.65 1.65 0 0 1-1.647 1.538H6.341A1.65 1.65 0 0 1 4.7 37.068L2.503 15.55H2a.55.55 0 0 1-.526-.71l.909-3Zm1.226 3.71H20.41l-1.455 21.387a.55.55 0 0 1-.549.513H6.341a.55.55 0 0 1-.547-.494L3.609 15.55Zm17.074-3 .576 1.9H2.74l.576-1.9h17.366ZM15.9 24a3.9 3.9 0 1 1-7.8 0 3.9 3.9 0 0 1 7.8 0Zm1.1 0a5 5 0 1 1-10 0 5 5 0 0 1 10 0Z" fill="#000" fill-opacity=".58"/></svg>