<svg xmlns:xlink="http://www.w3.org/1999/xlink" xmlns="http://www.w3.org/2000/svg" width="24" height="40" fill="none"><path d="M2.91 12 2 15h20l-.91-3H2.91ZM21 15H3l2.247 22.012A1.1 1.1 0 0 0 6.34 38h12.066a1.1 1.1 0 0 0 1.098-1.025L21 15Z" fill="#fff"/><path fill-rule="evenodd" clip-rule="evenodd" d="M2.909 11.45a.55.55 0 0 0-.526.39l-.91 3a.55.55 0 0 0 .527.71h.503L4.7 37.068A1.65 1.65 0 0 0 6.34 38.55h12.066a1.65 1.65 0 0 0 1.646-1.538l1.46-21.462H22a.55.55 0 0 0 .526-.71l-.909-3a.55.55 0 0 0-.526-.39H2.909Zm17.502 4.1H3.61l2.185 21.406a.55.55 0 0 0 .547.494h12.066a.55.55 0 0 0 .549-.513L20.41 15.55Zm.848-1.1-.576-1.9H3.317l-.576 1.9H21.26Z" fill="#000"/><circle cx="12" cy="24" r="4.45" fill="#00754A" stroke="#000" stroke-width="1.1"/></svg>