<svg width="32" height="33" viewBox="0 0 32 33" fill="none" xmlns="http://www.w3.org/2000/svg">
<g id="Nav - Global footer &#226;&#134;&#146; List &#226;&#134;&#146; Item &#226;&#134;&#146; Link - twitter &#226;&#134;&#146; SVG">
<path id="Vector" d="M15.9997 0.5C24.8226 0.5 32 7.67794 32 16.5003C32 25.3226 24.8226 32.5 15.9997 32.5C7.17736 32.5 0 25.3226 0 16.5003C0 7.67794 7.17736 0.5 15.9997 0.5ZM18.5772 8.50748C18.0661 8.54162 17.5648 8.6894 17.1115 8.9329C16.657 9.17695 16.2511 9.51617 15.9291 9.92535C15.5945 10.3485 15.3482 10.8484 15.2224 11.3785C15.1003 11.8901 15.1107 12.3956 15.1848 12.9128C15.1962 12.9984 15.1886 13.0102 15.1134 12.9984C12.2566 12.5618 9.88907 11.5117 7.96618 9.26148C7.88281 9.16352 7.83759 9.16352 7.76948 9.26875C6.92818 10.564 7.3363 12.6452 8.38737 13.6679C8.52741 13.8039 8.67071 13.9405 8.826 14.0648C8.76988 14.0765 8.0708 13.9987 7.44745 13.6679C7.36408 13.6136 7.32213 13.6444 7.3145 13.7418C7.30687 13.8817 7.31886 14.0105 7.33739 14.1627C7.49867 15.4754 8.38356 16.69 9.59592 17.1636C9.73977 17.2257 9.89888 17.2806 10.0536 17.3075C9.77791 17.3696 9.49348 17.4144 8.70122 17.3506C8.6026 17.331 8.565 17.3819 8.6026 17.4787C9.19816 19.1452 10.483 19.6411 11.4447 19.9238C11.5733 19.9467 11.7024 19.9467 11.8316 19.9781C11.8234 19.9898 11.8163 19.9898 11.8087 20.0016C11.4894 20.5009 10.3833 20.8731 9.86836 21.0579C8.93116 21.3948 7.9106 21.546 6.92001 21.4458C6.76144 21.4217 6.72875 21.4234 6.68571 21.4458C6.64212 21.4732 6.68026 21.5118 6.73093 21.5544C6.93199 21.6909 7.13632 21.8118 7.34501 21.9283C7.97381 22.2708 8.6293 22.5435 9.31531 22.7377C12.8559 23.7425 16.8445 23.0041 19.5035 20.2904C21.5915 18.1594 22.3233 15.2207 22.3233 12.278C22.3233 12.1627 22.4557 12.0995 22.5347 12.0384C23.0779 11.6192 23.5095 11.1176 23.9143 10.5573C23.9876 10.4566 23.9985 10.3648 23.9999 10.3086L24 10.2578C24 10.2108 24.0059 10.2248 23.935 10.2578C23.3842 10.5142 22.7783 10.6693 22.1838 10.7717C22.466 10.723 22.8818 10.1985 23.048 9.98637C23.3019 9.66282 23.5128 9.29394 23.631 8.89539C23.6468 8.86461 23.6577 8.82542 23.6277 8.80191C23.5896 8.78624 23.5651 8.79408 23.5351 8.80975C22.8714 9.17471 22.1854 9.44004 21.4553 9.62756C21.3948 9.64267 21.3501 9.62756 21.312 9.58838C21.2509 9.51841 21.1943 9.45235 21.13 9.3975C20.8232 9.12881 20.4941 8.91834 20.1225 8.76329C19.6348 8.55898 19.1025 8.47277 18.5772 8.50748Z" fill="black" fill-opacity="0.87"/>
</g>
</svg>
