<svg xmlns:xlink="http://www.w3.org/1999/xlink" xmlns="http://www.w3.org/2000/svg" width="24" height="40" fill="none"><path d="M2.91 4 2 7h20l-.91-3H2.91ZM21 7H3l2.27 29.983A1.1 1.1 0 0 0 6.369 38h12.02a1.1 1.1 0 0 0 1.1-1.044L21 7Z" fill="#fff"/><path fill-rule="evenodd" clip-rule="evenodd" d="M2.909 3.45a.55.55 0 0 0-.526.39l-.91 3A.55.55 0 0 0 2 7.55h.49l2.232 29.475a1.65 1.65 0 0 0 1.646 1.525h12.02a1.65 1.65 0 0 0 1.649-1.567L21.523 7.55H22a.55.55 0 0 0 .526-.71l-.909-3a.55.55 0 0 0-.526-.39H2.909Zm17.513 4.1H3.593L5.82 36.941a.55.55 0 0 0 .549.509h12.02a.55.55 0 0 0 .55-.522L20.422 7.55Zm.837-1.1-.576-1.9H3.317l-.576 1.9H21.26Z" fill="#000"/><circle cx="12" cy="20" r="5.45" fill="#00754A" stroke="#000" stroke-width="1.1"/></svg>