<svg xmlns:xlink="http://www.w3.org/1999/xlink" xmlns="http://www.w3.org/2000/svg" width="24" height="40" fill="none"><path fill-rule="evenodd" clip-rule="evenodd" d="M2.383 3.84a.55.55 0 0 1 .526-.39h18.182a.55.55 0 0 1 .526.39l.91 3a.55.55 0 0 1-.527.71h-.477l-1.486 29.433a1.65 1.65 0 0 1-1.648 1.567H6.368a1.65 1.65 0 0 1-1.646-1.525L2.49 7.55H2a.55.55 0 0 1-.526-.71l.909-3Zm1.21 3.71h16.829l-1.484 29.378a.55.55 0 0 1-.55.522H6.369a.55.55 0 0 1-.549-.509L3.593 7.55Zm17.09-3 .576 1.9H2.74l.576-1.9h17.366ZM16.9 20a4.9 4.9 0 1 1-9.8 0 4.9 4.9 0 0 1 9.8 0Zm1.1 0a6 6 0 1 1-12 0 6 6 0 0 1 12 0Z" fill="#000" fill-opacity=".58"/></svg>