<svg width="32" height="33" viewBox="0 0 32 33" fill="none" xmlns="http://www.w3.org/2000/svg">
<path id="Vector" d="M15.9997 0.5C24.8226 0.5 32 7.67794 32 16.5003C32 25.3226 24.8226 32.5 15.9997 32.5C7.17736 32.5 0 25.3226 0 16.5003C0 7.67794 7.17736 0.5 15.9997 0.5ZM21.56 9.83333H11.7733C9.68935 9.83333 8 11.5041 8 13.5652V18.1015C8 20.1626 9.68935 21.8333 11.7733 21.8333H21.56C23.644 21.8333 25.3333 20.1626 25.3333 18.1015V13.5652C25.3333 11.5041 23.644 9.83333 21.56 9.83333ZM15.1017 12.8744L19.428 15.6315C19.6188 15.752 19.5862 16.0596 19.3924 16.1762L15.0957 18.7956C14.9096 18.9076 14.7407 18.7567 14.7407 18.5216V13.1451C14.7407 12.9067 14.9144 12.7565 15.1017 12.8744Z" fill="black" fill-opacity="0.87"/>
</svg>
