<svg width="25" height="25" viewBox="0 0 25 25" fill="none" xmlns="http://www.w3.org/2000/svg">
<path d="M11.3721 11.3367V7.45275C11.3721 7.01875 11.7241 6.66675 12.1581 6.66675C12.5921 6.66675 12.9441 7.01875 12.9441 7.45275V11.3367H16.8041C17.2181 11.3367 17.5541 11.6727 17.5541 12.0867C17.5541 12.5007 17.2181 12.8367 16.8041 12.8367H12.9441V16.7187C12.9441 17.1527 12.5921 17.5047 12.1581 17.5047C11.7241 17.5047 11.3721 17.1527 11.3721 16.7187V12.8367H7.53809C7.12409 12.8367 6.78809 12.5007 6.78809 12.0867C6.78809 11.6727 7.12409 11.3367 7.53809 11.3367H11.3721Z" fill="black" fill-opacity="0.58"/>
</svg>
